<?xml version="1.0" encoding="UTF-8" standalone="no"?>
<!-- Created with Inkscape (http://www.inkscape.org/) -->

<svg
   xmlns:dc="http://purl.org/dc/elements/1.1/"
   xmlns:cc="http://creativecommons.org/ns#"
   xmlns:rdf="http://www.w3.org/1999/02/22-rdf-syntax-ns#"
   xmlns:svg="http://www.w3.org/2000/svg"
   xmlns="http://www.w3.org/2000/svg"
   xmlns:sodipodi="http://sodipodi.sourceforge.net/DTD/sodipodi-0.dtd"
   xmlns:inkscape="http://www.inkscape.org/namespaces/inkscape"
   width="94.380424mm"
   height="11.289124mm"
   viewBox="0 0 334.41884 40.000831"
   id="svg2"
   version="1.1"
   inkscape:version="0.91 r"
   sodipodi:docname="home_port_path_white.svg">
  <defs
     id="defs4" />
  <sodipodi:namedview
     id="base"
     pagecolor="#0b1100"
     bordercolor="#666666"
     borderopacity="1.0"
     inkscape:pageopacity="0"
     inkscape:pageshadow="2"
     inkscape:zoom="0.9899495"
     inkscape:cx="-78.10495"
     inkscape:cy="110.86264"
     inkscape:document-units="px"
     inkscape:current-layer="layer1"
     showgrid="false"
     fit-margin-top="0"
     fit-margin-left="0"
     fit-margin-right="0"
     fit-margin-bottom="0"
     inkscape:window-width="1855"
     inkscape:window-height="1056"
     inkscape:window-x="65"
     inkscape:window-y="24"
     inkscape:window-maximized="1" />
  <metadata
     id="metadata7">
    <rdf:RDF>
      <cc:Work
         rdf:about="">
        <dc:format>image/svg+xml</dc:format>
        <dc:type
           rdf:resource="http://purl.org/dc/dcmitype/StillImage" />
        <dc:title></dc:title>
      </cc:Work>
    </rdf:RDF>
  </metadata>
  <g
     inkscape:label="Layer 1"
     inkscape:groupmode="layer"
     id="layer1"
     transform="translate(-62.857422,-278.07534)">
    <g
       transform="translate(-40.000005,2.4099044e-6)"
       style="font-style:normal;font-weight:normal;font-size:40px;line-height:125%;font-family:sans-serif;letter-spacing:0px;word-spacing:0px;fill:#000000;fill-opacity:1;stroke:none;stroke-width:1px;stroke-linecap:butt;stroke-linejoin:miter;stroke-opacity:1"
       id="flowRoot3336">
      <path
         d="m 102.85742,295.57617 0,-17.5 5,0 5,0 0,7.5 0,7.5 7.5,0 7.5,0 0,-7.5 0,-7.5 5,0 5,0 0,17.5 0,17.5 -5,0 -5,0 0,-7.5 0,-7.5 -7.5,0 -7.5,0 0,7.5 0,7.5 -5,0 -5,0 0,-17.5 z"
         style="fill:#ffffff"
         id="path3423" />
      <path
         d="m 147.85742,280.57617 0,-2.5 12.5,0 12.5,0 0,2.5 0,2.5 2.5,0 2.5,0 0,12.5 0,12.5 -2.5,0 -2.5,0 0,2.5 0,2.5 -12.5,0 -12.5,0 0,-2.5 0,-2.5 -2.5,0 -2.5,0 0,-12.5 0,-12.5 2.5,0 2.5,0 0,-2.5 z m 20,15 0,-12.5 -7.5,0 -7.5,0 0,12.5 0,12.5 7.5,0 7.5,0 0,-12.5 z"
         style="fill:#ffffff"
         id="path3425" />
      <path
         d="m 182.85742,295.57617 0,-17.5 5,0 5,0 0,2.5 0,2.5 2.5,0 2.5,0 0,2.5 0,2.5 2.5,0 2.5,0 0,-2.5 0,-2.5 2.5,0 2.5,0 0,-2.5 0,-2.5 5,0 5,0 0,17.5 0,17.5 -5,0 -5,0 0,-7.5 0,-7.5 -2.5,0 -2.5,0 0,2.5 0,2.5 -2.5,0 -2.5,0 0,-2.5 0,-2.5 -2.5,0 -2.5,0 0,7.5 0,7.5 -5,0 -5,0 0,-17.5 z"
         style="fill:#ffffff"
         id="path3427" />
      <path
         d="m 222.85742,295.57617 0,-17.5 17.5,0 17.5,0 0,2.5 0,2.5 -12.5,0 -12.5,0 0,5 0,5 10,0 10,0 0,2.5 0,2.5 -10,0 -10,0 0,5 0,5 12.5,0 12.5,0 0,2.5 0,2.5 -17.5,0 -17.5,0 0,-17.5 z"
         style="fill:#ffffff"
         id="path3429" />
    </g>
    <text
       xml:space="preserve"
       style="font-style:normal;font-weight:normal;font-size:40px;line-height:125%;font-family:sans-serif;letter-spacing:0px;word-spacing:0px;fill:#000000;fill-opacity:1;stroke:none;stroke-width:1px;stroke-linecap:butt;stroke-linejoin:miter;stroke-opacity:1"
       x="218.19295"
       y="478.59555"
       id="text3350"
       sodipodi:linespacing="125%"><tspan
         sodipodi:role="line"
         id="tspan3352"
         x="218.19295"
         y="478.59555"
         style="font-style:normal;font-variant:normal;font-weight:500;font-stretch:normal;font-family:'Press Start 2P';-inkscape-font-specification:'Press Start 2P Medium'" /></text>
    <flowRoot
       xml:space="preserve"
       id="flowRoot3354"
       style="font-style:normal;font-weight:normal;font-size:40px;line-height:125%;font-family:sans-serif;letter-spacing:0px;word-spacing:0px;fill:#000000;fill-opacity:1;stroke:none;stroke-width:1px;stroke-linecap:butt;stroke-linejoin:miter;stroke-opacity:1"><flowRegion
         id="flowRegion3356"><rect
           id="rect3358"
           width="511.13718"
           height="171.72594"
           x="162.63457"
           y="413.9458" /></flowRegion><flowPara
         id="flowPara3360" /></flowRoot>    <g
       transform="translate(17.991126,256.6476)"
       style="font-style:normal;font-weight:normal;font-size:40px;line-height:125%;font-family:sans-serif;letter-spacing:0px;word-spacing:0px;fill:#000000;fill-opacity:1;stroke:none;stroke-width:1px;stroke-linecap:butt;stroke-linejoin:miter;stroke-opacity:1"
       id="flowRoot3362">
      <path
         d="m 224.28516,38.927734 0,-17.5 15,0 15,0 0,2.5 0,2.5 2.5,0 2.5,0 0,7.5 0,7.5 -2.5,0 -2.5,0 0,2.5 0,2.5 -10,0 -10,0 0,5 0,5 -5,0 -5,0 0,-17.5 z m 25,-5 0,-7.5 -7.5,0 -7.5,0 0,7.5 0,7.5 7.5,0 7.5,0 0,-7.5 z"
         style="font-style:normal;font-variant:normal;font-weight:500;font-stretch:normal;font-family:'Press Start 2P';-inkscape-font-specification:'Press Start 2P Medium';fill:#ffffff"
         id="path3414" />
      <path
         d="m 269.28516,23.927734 0,-2.5 12.5,0 12.5,0 0,2.5 0,2.5 2.5,0 2.5,0 0,12.5 0,12.5 -2.5,0 -2.5,0 0,2.5 0,2.5 -12.5,0 -12.5,0 0,-2.5 0,-2.5 -2.5,0 -2.5,0 0,-12.5 0,-12.5 2.5,0 2.5,0 0,-2.5 z m 20,15 0,-12.5 -7.5,0 -7.5,0 0,12.5 0,12.5 7.5,0 7.5,0 0,-12.5 z"
         style="font-style:normal;font-variant:normal;font-weight:500;font-stretch:normal;font-family:'Press Start 2P';-inkscape-font-specification:'Press Start 2P Medium';fill:#ffffff"
         id="path3416" />
      <path
         d="m 304.28516,38.927734 0,-17.5 15,0 15,0 0,2.5 0,2.5 2.5,0 2.5,0 0,7.5 0,7.5 -5,0 -5,0 0,2.5 0,2.5 2.5,0 2.5,0 0,2.5 0,2.5 2.5,0 2.5,0 0,2.5 0,2.5 -7.5,0 -7.5,0 0,-2.5 0,-2.5 -2.5,0 -2.5,0 0,-2.5 0,-2.5 -2.5,0 -2.5,0 0,5 0,5 -5,0 -5,0 0,-17.5 z m 25,-7.5 0,-5 -7.5,0 -7.5,0 0,7.5 0,7.5 5,0 5,0 0,-2.5 0,-2.5 2.5,0 2.5,0 0,-5 z"
         style="font-style:normal;font-variant:normal;font-weight:500;font-stretch:normal;font-family:'Press Start 2P';-inkscape-font-specification:'Press Start 2P Medium';fill:#ffffff"
         id="path3418" />
      <path
         d="m 349.28516,23.927734 0,-2.5 15,0 15,0 0,2.5 0,2.5 -5,0 -5,0 0,15 0,15 -5,0 -5,0 0,-15 0,-15 -5,0 -5,0 0,-2.5 z"
         style="font-style:normal;font-variant:normal;font-weight:500;font-stretch:normal;font-family:'Press Start 2P';-inkscape-font-specification:'Press Start 2P Medium';fill:#ffffff"
         id="path3420" />
    </g>
  </g>
</svg>
