<?xml version="1.0" encoding="UTF-8" standalone="no"?>
<svg
   xmlns:dc="http://purl.org/dc/elements/1.1/"
   xmlns:cc="http://creativecommons.org/ns#"
   xmlns:rdf="http://www.w3.org/1999/02/22-rdf-syntax-ns#"
   xmlns:svg="http://www.w3.org/2000/svg"
   xmlns="http://www.w3.org/2000/svg"
   xmlns:sodipodi="http://sodipodi.sourceforge.net/DTD/sodipodi-0.dtd"
   xmlns:inkscape="http://www.inkscape.org/namespaces/inkscape"
   width="140pt"
   height="90pt"
   viewBox="0 0 140 90"
   version="1.1"
   id="svg2"
   inkscape:version="0.91 r"
   sodipodi:docname="mal_5.svg">
  <metadata
     id="metadata16">
    <rdf:RDF>
      <cc:Work
         rdf:about="">
        <dc:format>image/svg+xml</dc:format>
        <dc:type
           rdf:resource="http://purl.org/dc/dcmitype/StillImage" />
        <dc:title></dc:title>
      </cc:Work>
    </rdf:RDF>
  </metadata>
  <defs
     id="defs14" />
  <sodipodi:namedview
     pagecolor="#ffffff"
     bordercolor="#666666"
     borderopacity="1"
     objecttolerance="10"
     gridtolerance="10"
     guidetolerance="10"
     inkscape:pageopacity="0"
     inkscape:pageshadow="2"
     inkscape:window-width="1654"
     inkscape:window-height="1028"
     id="namedview12"
     showgrid="false"
     inkscape:zoom="2"
     inkscape:cx="-53.518828"
     inkscape:cy="88.662542"
     inkscape:window-x="65"
     inkscape:window-y="24"
     inkscape:window-maximized="0"
     inkscape:current-layer="svg2"
     fit-margin-top="0"
     fit-margin-left="0"
     fit-margin-right="0"
     fit-margin-bottom="0" />
  <path
     d="m 0.97012988,17.632386 c 4.46999992,0 8.92999972,0 13.40000012,0 3.86,5.81 7.65,11.67 11.52,17.47 3.83,-5.8 7.65,-11.61 11.4,-17.46 4.49,-0.02 8.99,-0.01 13.48,-0.01 0,17.67 0.01,35.329995 0,52.999994 -4.74,0 -9.49,0 -14.23,0 0.31,-10.649999 0.3,-21.319999 0.59,-31.969999 -3.77,5.17 -7.47,10.39 -11.25,15.56 -3.75,-5.2 -7.46,-10.42 -11.29,-15.56 0.38,10.64 0.27,21.3 0.68,31.939999 -4.77,0.05 -9.5300002,0.02 -14.30000012,0.03 -0.01,-17.669999 0,-35.329994 0,-52.999994 z"
     id="path6"
     style="fill:#000000;fill-opacity:1"
     inkscape:connector-curvature="0" />
  <path
     d="m 71.32013,21.462386 c 8.25,-4.35 17.83,-3.92 26.86,-3.82 1.03,4.01 2.11999,8 3.20999,12 -7.30999,0.31 -15.10999,-1.14 -21.95999,2.11 -4.09,1.87 -6.62,5.839995 -8.26,9.859995 4.58,0.04 9.16,0.03 13.75,0 -0.02,-3.33 -0.02,-6.649995 -0.01,-9.979995 4.77,0 9.55,-0.01 14.33,0 0,12.999995 0,25.999995 0,38.989994 -4.78,0.01 -9.56,0.01 -14.33,0.01 -0.01,-5.659999 -0.01,-11.329999 0,-16.989999 -5.08,-0.02 -10.16,-0.02 -15.24,0 0.35,5.84 2.52,11.41 5.56,16.349999 -3.75,2.59 -7.57,5.09 -11.54,7.34 -5.53,-8.829999 -9.33,-19.199999 -8.24,-29.759999 0.87,-10.459995 6.28,-21.159995 15.87,-26.109995 z"
     id="path8"
     style="fill:#000000"
     inkscape:connector-curvature="0" />
  <path
     d="m 107.10012,17.642386 c 4.8,-0.01 9.6,-0.01 14.4,0 0.01,13.66 0,27.319995 0,40.979995 6.17,0.02 12.33,-0.01 18.49,0.03 -1.19,4 -2.42,7.98 -3.64,11.979999 -9.75,0 -19.5,0 -29.24,0 -0.01,-17.669999 -0.01,-35.329994 -0.01,-52.989994 z"
     id="path10"
     style="fill:#000000;fill-opacity:1"
     inkscape:connector-curvature="0" />
</svg>
