<?xml version="1.0" encoding="UTF-8" standalone="no"?>
<!-- Generator: Adobe Illustrator 16.0.0, SVG Export Plug-In . SVG Version: 6.00 Build 0)  -->

<svg
   xmlns:dc="http://purl.org/dc/elements/1.1/"
   xmlns:cc="http://creativecommons.org/ns#"
   xmlns:rdf="http://www.w3.org/1999/02/22-rdf-syntax-ns#"
   xmlns:svg="http://www.w3.org/2000/svg"
   xmlns="http://www.w3.org/2000/svg"
   xmlns:sodipodi="http://sodipodi.sourceforge.net/DTD/sodipodi-0.dtd"
   xmlns:inkscape="http://www.inkscape.org/namespaces/inkscape"
   version="1.1"
   id="Layer_1"
   x="0px"
   y="0px"
   width="22.443001"
   height="22.443001"
   viewBox="0 0 22.443 22.443001"
   enable-background="new 0 0 22.443 18"
   xml:space="preserve"
   inkscape:version="0.91 r"
   sodipodi:docname="twitter--black1.svg"><metadata
     id="metadata11"><rdf:RDF><cc:Work
         rdf:about=""><dc:format>image/svg+xml</dc:format><dc:type
           rdf:resource="http://purl.org/dc/dcmitype/StillImage" /><dc:title></dc:title></cc:Work></rdf:RDF></metadata><defs
     id="defs9" /><sodipodi:namedview
     pagecolor="#ffffff"
     bordercolor="#666666"
     borderopacity="1"
     objecttolerance="10"
     gridtolerance="10"
     guidetolerance="10"
     inkscape:pageopacity="0"
     inkscape:pageshadow="2"
     inkscape:window-width="1331"
     inkscape:window-height="914"
     id="namedview7"
     showgrid="false"
     inkscape:zoom="13.111111"
     inkscape:cx="-3.3844318"
     inkscape:cy="9"
     inkscape:window-x="65"
     inkscape:window-y="34"
     inkscape:window-maximized="0"
     inkscape:current-layer="Layer_1" /><g
     id="g3"
     transform="translate(0,2.0785924)"><path
       d="m 22.444,2.334 c -0.813,0.363 -1.5,0.375 -2.229,0.016 0.938,-0.562 0.98,-0.957 1.32,-2.019 -0.878,0.521 -1.852,0.9 -2.887,1.104 C 17.823,0.553 16.642,0 15.335,0 c -2.51,0 -4.544,2.036 -4.544,4.544 0,0.356 0.04,0.703 0.117,1.036 C 7.132,5.391 3.783,3.582 1.542,0.832 1.151,1.503 0.927,2.284 0.927,3.117 0.927,4.694 1.731,6.084 2.948,6.899 2.203,6.875 1.503,6.671 0.891,6.331 0.89,6.35 0.89,6.368 0.89,6.388 c 0,2.202 1.565,4.038 3.646,4.456 -0.666,0.182 -1.368,0.209 -2.054,0.078 0.579,1.805 2.258,3.119 4.245,3.156 C 4.783,15.602 2.372,16.236 0,15.959 2.012,17.248 4.399,18 6.966,18 c 8.358,0 12.929,-6.924 12.929,-12.929 0,-0.198 -0.003,-0.393 -0.013,-0.588 0.887,-0.64 1.953,-1.237 2.562,-2.149 z"
       id="path5"
       inkscape:connector-curvature="0"
       style="fill:#222222" /></g></svg>